<svg id="Layer_1" xmlns="http://www.w3.org/2000/svg" viewBox="0 0 447.3 107.7"><style>.st0{fill-rule:evenodd;clip-rule:evenodd}.st0,.st2{fill:#ff8b00}.st3{fill:#fff}</style><path class="st0" d="M53.7 76.2c0 14.8-12 26.8-26.8 26.8C12 103.1 0 91.1 0 76.2c0-14.8 12-26.8 26.8-26.8s26.9 12 26.9 26.8zM26.9 60.9c-8.7 0-15.7 7-15.7 15.7s7 15.7 15.7 15.7 15.7-7 15.7-15.7c-.1-8.7-7.1-15.7-15.7-15.7z"/><circle cx="26.8" cy="76.8" r="10.8" fill-rule="evenodd" clip-rule="evenodd" fill="#f05a2d"/><path class="st0" d="M105.8 87.2l11.6-10.4 3.2 15.2 3.2 15.3-14.8-4.9-14.8-4.8z"/><path class="st0" d="M135.2 51.6c0 28.4-23.1 51.5-51.5 51.5-16.4 0-31.1-7.7-40.5-19.7 9.2-7.2-1.8-21.4-10.3-23.8h-.1c-.4-2.6-.6-5.3-.6-8C32.2 23.2 55.3.1 83.7.1c28.5 0 51.5 23 51.5 51.5zm-57.5-5.3c1-.6 1.8-.9 2.6-.9.7 0 1 .4 1 1.1 0 .7-.1 1.5-.4 2.3-5.7 18.5-8.5 30.1-8.5 34.8 0 1.5.4 2.6 1.2 3.5.8.8 1.8 1.3 3.2 1.3 1.5 0 3.5-.7 5.9-2.1 2.4-1.4 6.2-4.5 11.4-9.4l-2.2-2.2c-5 4.7-8.1 7.1-9.3 7.1-.3 0-.6-.2-.9-.5-.3-.4-.4-.8-.4-1.3 0-2.8 2-10.9 6-24.4 2.5-8.2 3.7-12.9 3.7-14 0-.9-.3-1.6-1-2.2-.6-.5-1.6-.8-2.8-.8-2.2 0-4.9.9-8 2.6-3.1 1.8-6.6 4.7-10.4 8.9l2.5 1.9c3.2-3.1 5.4-5.1 6.4-5.7zm12-30.1c-1.1 1.2-1.7 2.6-1.7 4.4 0 1.3.4 2.3 1.1 3.1.8.8 1.7 1.2 2.8 1.2 1.4 0 2.7-.6 3.9-1.9 1.2-1.3 1.7-2.7 1.7-4.4 0-1.2-.4-2.2-1.1-3-.8-.8-1.7-1.2-2.9-1.2-1.4 0-2.7.6-3.8 1.8z"/><path class="st2" d="M200.5 22.4c-2.3-2.1-5.1-3.9-8.2-3.9-4.2 0-7.6 3.3-7.6 7.5s3.6 7.5 7.8 7.5c3.2 0 5.8-1.4 8-3.6l-.4 14.4c-2.3 1.1-7.5 1.5-10 1.5-11 0-19.6-8.5-19.6-19.5C170.5 15 179.3 6 190.6 6c3.2 0 6.4.6 9.4 1.6l.5 14.8zM246.7 26.2c0 12.4-9.6 19.8-21.3 19.8-11.8 0-21.3-7.4-21.3-19.8 0-12.1 9.6-20 21.3-20 11.7 0 21.3 7.8 21.3 20zm-28.5.2c0 4.4 3 7.4 7.2 7.4s7.2-3 7.2-7.4c0-4.1-2.8-7.5-7.2-7.5s-7.2 3.4-7.2 7.5zM250.6 6.8h14V33h11.8v12.4h-25.8V6.8zM279.2 6.8h14V33H305v12.4h-25.8V6.8zM308.6 6.8h25.9v10.5h-11.8V21h10.8v10h-10.8v3.8H335v10.5h-26.3V6.8zM380.5 22.6c-.1 6.3-.1 11.6-4.7 16.5-4.1 4.4-10.4 6.9-16.4 6.9-11.8 0-21.3-7.3-21.3-19.6 0-12.6 9.3-20.1 21.4-20.1 6.7 0 15.9 3.3 18.9 9.9L365.3 21c-1.1-1.9-3.1-3-5.3-3-5 0-7.8 4.3-7.8 8.9 0 4.2 2.7 8.2 7.2 8.2 2.2 0 5-1 5.7-3.4h-6.3v-9.1h21.7zM384.1 6.8H410v10.5h-11.8V21H409v10h-10.8v3.8h12.2v10.5h-26.3V6.8z"/><g><path class="st2" d="M340.7 77.4c-.1 6.3-.1 11.6-4.7 16.5-4.1 4.4-10.4 6.9-16.4 6.9-11.8 0-21.3-7.3-21.3-19.6 0-12.6 9.3-20.1 21.4-20.1 6.7 0 15.9 3.3 18.9 9.9l-13.1 4.8c-1.1-1.9-3.1-3-5.3-3-5 0-7.8 4.3-7.8 8.9 0 4.2 2.7 8.2 7.2 8.2 2.2 0 5-1 5.7-3.4H319v-9.1h21.7zM345.3 61.5h25.9V72h-11.8v3.7h10.8v10h-10.8v3.8h12.2V100h-26.3V61.5zM377.2 61.5h25.9V72h-11.8v3.7h10.8v10h-10.8v3.8h12.2V100h-26.3V61.5zM408.4 61.5h13.7l-.3 16.7h.3c.3-1.6 1.2-3 1.9-4.3l6.8-12.4h15.3L434 80.3l13.3 19.8H431l-6.6-11.7c-.8-1.5-2-2.9-2.4-4.5h-.3l.3 16.2h-13.7V61.5z"/></g><g><path class="st3" d="M172.9 61.5h14v38.6h-14V61.5zM193.2 61.5h13.4l12.6 21.4h.4c-.6-3.2-1.2-6.5-1.2-9.8V61.5h13.4v38.6h-13.4l-12.3-20.3h-.4c.5 2.7.9 5.2.9 7.7V100h-13.4V61.5zM238 61.5h25.8v11h-11.7v4h10.3v10h-10.3V100H238V61.5zM310 80.9c0 12.4-9.6 19.8-21.3 19.8-11.8 0-21.3-7.4-21.3-19.8 0-12.1 9.6-20 21.3-20s21.3 7.9 21.3 20zm-28.5.2c0 4.4 3 7.4 7.2 7.4s7.2-3 7.2-7.4c0-4.1-2.8-7.5-7.2-7.5s-7.2 3.4-7.2 7.5z"/></g></svg>